<svg width="829" height="615" viewBox="0 0 829 615" fill="none" xmlns="http://www.w3.org/2000/svg">
<g filter="url(#filter0_d)">
<rect x="80.5" y="60.5" width="667.813" height="453.966" rx="7.5" fill="white" stroke="#F27F6F"/>
<path d="M88 60.5H740.813C744.955 60.5 748.313 63.8579 748.313 68V109.133H80.5V68C80.5 63.8579 83.8579 60.5 88 60.5Z" fill="#F27F6F" stroke="#F27F6F"/>
<circle cx="119.782" cy="84.2716" r="14.466" fill="white" stroke="#F27F6F"/>
<circle cx="709.714" cy="84.8162" r="6.73809" fill="white" stroke="#F27F6F"/>
<rect x="163.221" y="78.0781" width="145.767" height="13.4762" rx="6.5" fill="white" stroke="#F27F6F"/>
</g>
<rect x="336" y="317.482" width="154" height="14" rx="7" fill="#D2D9E1"/>
<path d="M119 154.482C119 150.064 122.582 146.482 127 146.482H616C620.418 146.482 624 150.064 624 154.482V180.482C624 184.901 620.418 188.482 616 188.482H119V154.482Z" fill="#F27F6F"/>
<path d="M119 361.482C119 357.064 122.582 353.482 127 353.482H543C547.418 353.482 551 357.064 551 361.482V387.482C551 391.901 547.418 395.482 543 395.482H119V361.482Z" fill="#F27F6F"/>
<path d="M119 196.482H471C475.418 196.482 479 200.064 479 204.482V230.482C479 234.901 475.418 238.482 471 238.482H127C122.582 238.482 119 234.901 119 230.482V196.482Z" fill="#F27F6F"/>
<path d="M385 261.482C385 257.064 388.582 253.482 393 253.482H718C722.418 253.482 726 257.064 726 261.482V295.482H393C388.582 295.482 385 291.901 385 287.482V261.482Z" fill="#D2D9E1"/>
<path d="M393 412.482H718C721.866 412.482 725 415.616 725 419.482V452.482H393C389.134 452.482 386 449.348 386 445.482V419.482C386 415.616 389.134 412.482 393 412.482Z" stroke="#D2D9E1" stroke-width="2"/>
<defs>
<filter id="filter0_d" x="0" y="0" width="828.813" height="614.966" filterUnits="userSpaceOnUse" color-interpolation-filters="sRGB">
<feFlood flood-opacity="0" result="BackgroundImageFix"/>
<feColorMatrix in="SourceAlpha" type="matrix" values="0 0 0 0 0 0 0 0 0 0 0 0 0 0 0 0 0 0 127 0"/>
<feOffset dy="20"/>
<feGaussianBlur stdDeviation="40"/>
<feColorMatrix type="matrix" values="0 0 0 0 0 0 0 0 0 0 0 0 0 0 0 0 0 0 0.25 0"/>
<feBlend mode="normal" in2="BackgroundImageFix" result="effect1_dropShadow"/>
<feBlend mode="normal" in="SourceGraphic" in2="effect1_dropShadow" result="shape"/>
</filter>
</defs>
</svg>
