<svg width="1046" height="597" viewBox="0 0 1046 597" fill="none" xmlns="http://www.w3.org/2000/svg">
<rect x="0.5" y="0.5" width="1045" height="179" rx="15.5" fill="#EDF1F9" stroke="#D2D9E1"/>
<rect x="146.5" y="57.5" width="318" height="65" rx="7.5" fill="white" stroke="#D2D9E1"/>
<rect x="581.5" y="57.5" width="318" height="65" rx="7.5" fill="white" stroke="#D2D9E1"/>
<rect x="940.5" y="57.5" width="65" height="65" rx="7.5" fill="#84E2CC" stroke="#15D1A5"/>
<line x1="473.5" y1="88.5" x2="571.5" y2="88.5" stroke="#4B566D" stroke-opacity="0.49" stroke-width="5" stroke-linecap="round" stroke-linejoin="round" stroke-dasharray="0.1 10"/>
<g clip-path="url(#clip0)">
<path d="M992.453 106.586L984.664 98.7969C984.312 98.4453 983.836 98.25 983.336 98.25H982.062C984.219 95.4922 985.5 92.0234 985.5 88.25C985.5 79.2734 978.227 72 969.25 72C960.273 72 953 79.2734 953 88.25C953 97.2266 960.273 104.5 969.25 104.5C973.023 104.5 976.492 103.219 979.25 101.062V102.336C979.25 102.836 979.445 103.312 979.797 103.664L987.586 111.453C988.32 112.187 989.508 112.187 990.234 111.453L992.445 109.242C993.18 108.508 993.18 107.32 992.453 106.586ZM969.25 98.25C963.727 98.25 959.25 93.7813 959.25 88.25C959.25 82.7266 963.719 78.25 969.25 78.25C974.773 78.25 979.25 82.7187 979.25 88.25C979.25 93.7734 974.781 98.25 969.25 98.25Z" fill="white"/>
</g>
<path d="M747.435 230.602L738.435 227.948C737.393 227.646 736.668 226.663 736.668 225.571C736.668 224.202 737.768 223.094 739.126 223.094H744.651C745.668 223.094 746.668 223.404 747.501 223.976C748.01 224.32 748.693 224.236 749.126 223.808L752.026 220.952C752.618 220.373 752.535 219.407 751.876 218.895C749.835 217.282 747.285 216.383 744.668 216.375V212.344C744.668 211.605 744.068 211 743.335 211H740.668C739.935 211 739.335 211.605 739.335 212.344V216.375H739.126C733.818 216.375 729.551 220.969 730.043 226.42C730.393 230.291 733.326 233.441 737.026 234.532L745.568 237.052C746.61 237.363 747.335 238.337 747.335 239.429C747.335 240.798 746.235 241.906 744.876 241.906H739.351C738.335 241.906 737.335 241.596 736.501 241.024C735.993 240.68 735.31 240.764 734.876 241.192L731.976 244.048C731.385 244.627 731.468 245.593 732.126 246.105C734.168 247.718 736.718 248.617 739.335 248.625V252.656C739.335 253.395 739.935 254 740.668 254H743.335C744.068 254 744.668 253.395 744.668 252.656V248.608C748.551 248.533 752.193 246.206 753.476 242.503C755.268 237.329 752.26 232.021 747.435 230.602V230.602Z" fill="#84E2CC"/>
<g clip-path="url(#clip1)">
<path d="M415.356 253.132C403.248 235.442 401 233.626 401 227.125C401 218.219 408.163 211 417 211C425.837 211 433 218.219 433 227.125C433 233.626 430.753 235.442 418.644 253.132C417.85 254.289 416.15 254.289 415.356 253.132ZM417 233.844C420.682 233.844 423.667 230.836 423.667 227.125C423.667 223.414 420.682 220.406 417 220.406C413.318 220.406 410.333 223.414 410.333 227.125C410.333 230.836 413.318 233.844 417 233.844Z" fill="#84E2CC"/>
</g>
<rect x="22" y="279" width="1002" height="76" rx="4" fill="#EDF1F9"/>
<rect x="22" y="431" width="1002" height="76" rx="4" fill="#EDF1F9"/>
<path d="M22 587C22 584.791 23.7909 583 26 583H1020C1022.21 583 1024 584.791 1024 587V597H22V587Z" fill="#EDF1F9"/>
<rect x="358" y="537" width="117" height="20" rx="10" fill="#9CA4B3"/>
<rect x="692" y="537" width="100" height="20" rx="10" fill="#9CA4B3"/>
<rect x="358" y="461" width="117" height="20" rx="10" fill="#9CA4B3"/>
<rect x="692" y="461" width="100" height="20" rx="10" fill="#9CA4B3"/>
<rect x="900" y="453" width="85" height="36" rx="10" fill="#D2D9E1"/>
<rect x="900" y="529" width="85" height="36" rx="10" fill="#D2D9E1"/>
<rect x="358" y="384" width="117" height="20" rx="10" fill="#9CA4B3"/>
<rect x="692" y="384" width="100" height="20" rx="10" fill="#9CA4B3"/>
<rect x="900" y="376" width="85" height="35" rx="10" fill="#D2D9E1"/>
<rect x="358" y="307" width="117" height="20" rx="10" fill="#9CA4B3"/>
<rect x="109" y="537" width="117" height="20" rx="10" fill="#9CA4B3"/>
<g clip-path="url(#clip2)">
<path d="M66.7937 302.112L70.875 310.387L80.0062 311.719C81.6437 311.956 82.3 313.975 81.1125 315.131L74.5062 321.569L76.0687 330.662C76.35 332.306 74.6187 333.537 73.1687 332.769L65 328.475L56.8312 332.769C55.3812 333.531 53.65 332.306 53.9312 330.662L55.4937 321.569L48.8875 315.131C47.7 313.975 48.3562 311.956 49.9937 311.719L59.125 310.387L63.2062 302.112C63.9375 300.637 66.0562 300.619 66.7937 302.112Z" fill="#84E2CC"/>
</g>
<g clip-path="url(#clip3)">
<path d="M66.7937 379.112L70.875 387.387L80.0062 388.719C81.6437 388.956 82.3 390.975 81.1125 392.131L74.5062 398.569L76.0687 407.662C76.35 409.306 74.6187 410.537 73.1687 409.769L65 405.475L56.8312 409.769C55.3812 410.531 53.65 409.306 53.9312 407.662L55.4937 398.569L48.8875 392.131C47.7 390.975 48.3562 388.956 49.9937 388.719L59.125 387.387L63.2062 379.112C63.9375 377.637 66.0562 377.619 66.7937 379.112Z" fill="#84E2CC"/>
</g>
<rect x="109" y="461" width="117" height="20" rx="10" fill="#9CA4B3"/>
<rect x="109" y="384" width="117" height="20" rx="10" fill="#9CA4B3"/>
<rect x="109" y="307" width="117" height="20" rx="10" fill="#9CA4B3"/>
<rect x="692" y="307" width="100" height="20" rx="10" fill="#9CA4B3"/>
<rect x="900" y="299" width="85" height="35" rx="10" fill="#D2D9E1"/>
<defs>
<clipPath id="clip0">
<rect width="40" height="40" fill="white" transform="translate(953 72)"/>
</clipPath>
<clipPath id="clip1">
<rect width="32" height="43" fill="white" transform="translate(401 211)"/>
</clipPath>
<clipPath id="clip2">
<rect width="36" height="32" fill="white" transform="matrix(-1 0 0 1 83 301)"/>
</clipPath>
<clipPath id="clip3">
<rect width="36" height="32" fill="white" transform="matrix(-1 0 0 1 83 378)"/>
</clipPath>
</defs>
</svg>
