<?xml version="1.0" encoding="UTF-8"?>
<svg width="244px" height="156px" viewBox="0 0 244 156" version="1.1" xmlns="http://www.w3.org/2000/svg" xmlns:xlink="http://www.w3.org/1999/xlink">
    <!-- Generator: Sketch 56 (81588) - https://sketch.com -->
    <title>SA Copy</title>
    <desc>Created with Sketch.</desc>
    <defs>
        <linearGradient x1="50%" y1="0%" x2="50%" y2="100%" id="linearGradient-1">
            <stop stop-color="#FDD5A2" offset="0%"></stop>
            <stop stop-color="#F2A49C" offset="100%"></stop>
        </linearGradient>
        <path d="M72.54,34.38 C70.2599886,31.4999856 67.1700195,29.3700069 63.27,27.99 C59.3699805,26.6099931 55.6800174,25.92 52.2,25.92 C50.1599898,25.92 48.0600108,26.1599976 45.9,26.64 C43.7399892,27.1200024 41.7000096,27.8699949 39.78,28.89 C37.8599904,29.9100051 36.300006,31.2599916 35.1,32.94 C33.899994,34.6200084 33.3,36.659988 33.3,39.06 C33.3,42.9000192 34.7399856,45.8399898 37.62,47.88 C40.5000144,49.9200102 44.1299781,51.6599928 48.51,53.1 C52.8900219,54.5400072 57.5999748,55.9799928 62.64,57.42 C67.6800252,58.8600072 72.3899781,60.8999868 76.77,63.54 C81.1500219,66.1800132 84.7799856,69.7199778 87.66,74.16 C90.5400144,78.6000222 91.98,84.5399628 91.98,91.98 C91.98,99.0600354 90.6600132,105.239974 88.02,110.52 C85.3799868,115.800026 81.8100225,120.179983 77.31,123.66 C72.8099775,127.140017 67.5900297,129.719992 61.65,131.4 C55.7099703,133.080008 49.440033,133.92 42.84,133.92 C34.5599586,133.92 26.8800354,132.660013 19.8,130.14 C12.7199646,127.619987 6.1200306,123.540028 0,117.9 L19.98,95.94 C22.8600144,99.7800192 26.4899781,102.749989 30.87,104.85 C35.2500219,106.95001 39.7799766,108 44.46,108 C46.7400114,108 49.0499883,107.730003 51.39,107.19 C53.7300117,106.649997 55.8299907,105.840005 57.69,104.76 C59.5500093,103.679995 61.0499943,102.300008 62.19,100.62 C63.3300057,98.9399916 63.9,96.9600114 63.9,94.68 C63.9,90.8399808 62.4300147,87.8100111 59.49,85.59 C56.5499853,83.3699889 52.8600222,81.4800078 48.42,79.92 C43.9799778,78.3599922 39.1800258,76.8000078 34.02,75.24 C28.8599742,73.6799922 24.0600222,71.5800132 19.62,68.94 C15.1799778,66.2999868 11.4900147,62.8200216 8.55,58.5 C5.6099853,54.1799784 4.14,48.4800354 4.14,41.4 C4.14,34.5599658 5.4899865,28.5600258 8.19,23.4 C10.8900135,18.2399742 14.4899775,13.9200174 18.99,10.44 C23.4900225,6.9599826 28.6799706,4.3500087 34.56,2.61 C40.4400294,0.8699913 46.4999688,0 52.74,0 C59.940036,0 66.8999664,1.0199898 73.62,3.06 C80.3400336,5.1000102 86.399973,8.519976 91.8,13.32 L72.54,34.38 Z M154.8,3.24 L178.02,3.24 L233.46,130.68 L201.78,130.68 L190.8,103.68 L141.3,103.68 L130.68,130.68 L99.72,130.68 L154.8,3.24 Z M165.6,40.32 L150.12,79.92 L181.26,79.92 L165.6,40.32 Z" id="path-2"></path>
        <filter x="-7.8%" y="-8.6%" width="115.5%" height="134.3%" filterUnits="objectBoundingBox" id="filter-3">
            <feMorphology radius="2.5" operator="erode" in="SourceAlpha" result="shadowSpreadOuter1"></feMorphology>
            <feOffset dx="0" dy="14" in="shadowSpreadOuter1" result="shadowOffsetOuter1"></feOffset>
            <feGaussianBlur stdDeviation="7" in="shadowOffsetOuter1" result="shadowBlurOuter1"></feGaussianBlur>
            <feColorMatrix values="0 0 0 0 0   0 0 0 0 0   0 0 0 0 0  0 0 0 0.266553759 0" type="matrix" in="shadowBlurOuter1"></feColorMatrix>
        </filter>
    </defs>
    <g id="Page-1" stroke="none" stroke-width="1" fill="none" fill-rule="evenodd">
        <g id="brandingProducts" transform="translate(-283.000000, -359.000000)" fill-rule="nonzero">
            <g id="sourcingAutomation" transform="translate(289.000000, 359.000000)">
                <g id="SA-Copy">
                    <use fill="black" fill-opacity="1" filter="url(#filter-3)" xlink:href="#path-2"></use>
                    <use fill="#FFFFFF" xlink:href="#path-2"></use>
                    <use fill="url(#linearGradient-1)" xlink:href="#path-2"></use>
                </g>
            </g>
        </g>
    </g>
</svg>