<svg width="1119" height="612" viewBox="0 0 1119 612" fill="none" xmlns="http://www.w3.org/2000/svg">
<rect width="260" height="612" fill="white"/>
<path d="M0 0H260V612H16C7.16344 612 0 604.837 0 596V0Z" fill="#101319"/>
<path d="M65 56.2745V0H44.7241H23V56.2745L44.7241 70L65 56.2745Z" fill="#283142"/>
<path d="M65 127.078V70L44 83.9216L23 70V127.078L44.7241 141L65 127.078Z" fill="#283142"/>
<path d="M65 406.374V350.1L44 363.825L23 350.1V406.374L44.7241 420.1L65 406.374Z" fill="#6A7894"/>
<path d="M65 472.174V415.899L44 429.625L23 415.899V472.174L44.7241 485.899L65 472.174Z" fill="#6A7894"/>
<path d="M65 446.974V390.699L44 404.425L23 390.699V446.974L44.7241 460.699L65 446.974Z" fill="#6A7894"/>
<path d="M65 266.275V210L44 223.725L23 210V266.275L44.7241 280L65 266.275Z" fill="#283142"/>
<path d="M65 336.275V280L44 293.725L23 280V336.275L44.7241 350L65 336.275Z" fill="#283142"/>
<path d="M65 196.471V141L44 154.529L23 141V196.471L44.7241 210L65 196.471Z" fill="#283142"/>
<path d="M65 542.275V486L44 499.725L23 486V542.275L44.7241 556L65 542.275Z" fill="#283142"/>
<path d="M253 370H260V392H253V370Z" fill="#7252CD"/>
<path d="M80 380.636C80 375.867 83.8666 372 88.6364 372H153.5C158.747 372 163 376.253 163 381.5V381.5C163 386.747 158.747 391 153.5 391H90.3636C84.64 391 80 386.36 80 380.636V380.636Z" fill="#7252CD"/>
<path d="M80 413.636C80 408.867 83.8666 405 88.6364 405H162.5C167.747 405 172 409.253 172 414.5V414.5C172 419.747 167.747 424 162.5 424H90.3636C84.64 424 80 419.36 80 413.636V413.636Z" fill="#6A7894"/>
<path d="M80 449.636C80 444.867 83.8666 441 88.6364 441H200.5C205.747 441 210 445.253 210 450.5V450.5C210 455.747 205.747 460 200.5 460H90.3636C84.64 460 80 455.36 80 449.636V449.636Z" fill="#6A7894"/>
<path d="M80 519.636C80 514.867 83.8666 511 88.6364 511H200.5C205.747 511 210 515.253 210 520.5V520.5C210 525.747 205.747 530 200.5 530H90.3636C84.64 530 80 525.36 80 519.636V519.636Z" fill="#283142"/>
<path d="M80 313.636C80 308.867 83.8666 305 88.6364 305H200.5C205.747 305 210 309.253 210 314.5V314.5C210 319.747 205.747 324 200.5 324H90.3636C84.64 324 80 319.36 80 313.636V313.636Z" fill="#283142"/>
<path d="M80 243.636C80 238.867 83.8666 235 88.6364 235H200.5C205.747 235 210 239.253 210 244.5V244.5C210 249.747 205.747 254 200.5 254H90.3636C84.64 254 80 249.36 80 243.636V243.636Z" fill="#283142"/>
<path d="M80 174.636C80 169.867 83.8666 166 88.6364 166H200.5C205.747 166 210 170.253 210 175.5V175.5C210 180.747 205.747 185 200.5 185H90.3636C84.64 185 80 180.36 80 174.636V174.636Z" fill="#283142"/>
<path d="M80 104.636C80 99.8666 83.8666 96 88.6364 96H200.5C205.747 96 210 100.253 210 105.5V105.5C210 110.747 205.747 115 200.5 115H90.3636C84.64 115 80 110.36 80 104.636V104.636Z" fill="#283142"/>
<rect x="285" y="135" width="834" height="76" rx="4" fill="#EDF1F9"/>
<rect x="285" y="287" width="834" height="76" rx="4" fill="#EDF1F9"/>
<rect x="285" y="439" width="834" height="76" rx="4" fill="#EDF1F9"/>
<path d="M995.435 84.602L986.435 81.948C985.393 81.6457 984.668 80.6631 984.668 79.5713C984.668 78.2023 985.768 77.0938 987.126 77.0938H992.651C993.668 77.0938 994.668 77.4045 995.501 77.9756C996.01 78.3199 996.693 78.2359 997.126 77.8076L1000.03 74.9521C1000.62 74.3727 1000.53 73.4068 999.876 72.8945C997.835 71.282 995.285 70.3834 992.668 70.375V66.3438C992.668 65.6047 992.068 65 991.335 65H988.668C987.935 65 987.335 65.6047 987.335 66.3438V70.375H987.126C981.818 70.375 977.551 74.9689 978.043 80.4195C978.393 84.2912 981.326 87.4406 985.026 88.5324L993.568 91.052C994.61 91.3627 995.335 92.3369 995.335 93.4287C995.335 94.7977 994.235 95.9062 992.876 95.9062H987.351C986.335 95.9062 985.335 95.5955 984.501 95.0244C983.993 94.6801 983.31 94.7641 982.876 95.1924L979.976 98.0479C979.385 98.6273 979.468 99.5932 980.126 100.105C982.168 101.718 984.718 102.617 987.335 102.625V106.656C987.335 107.395 987.935 108 988.668 108H991.335C992.068 108 992.668 107.395 992.668 106.656V102.608C996.551 102.533 1000.19 100.206 1001.48 96.5025C1003.27 91.3291 1000.26 86.0213 995.435 84.602V84.602Z" fill="#7252CD" fill-opacity="0.7"/>
<path d="M762.825 92.584C762.825 93.976 762.549 95.152 761.997 96.112C761.445 97.048 760.713 97.804 759.801 98.38C758.889 98.956 757.845 99.376 756.669 99.64C755.517 99.88 754.329 100 753.105 100H742.953V74.512H753.105C754.089 74.512 755.097 74.62 756.129 74.836C757.161 75.028 758.097 75.376 758.937 75.88C759.777 76.36 760.461 77.02 760.989 77.86C761.517 78.7 761.781 79.768 761.781 81.064C761.781 82.48 761.397 83.656 760.629 84.592C759.861 85.504 758.853 86.164 757.605 86.572V86.644C758.325 86.764 758.997 86.992 759.621 87.328C760.269 87.64 760.821 88.048 761.277 88.552C761.757 89.056 762.129 89.644 762.393 90.316C762.681 90.988 762.825 91.744 762.825 92.584ZM755.841 81.892C755.841 81.028 755.505 80.404 754.833 80.02C754.185 79.612 753.213 79.408 751.917 79.408H748.893V84.664H752.205C753.357 84.664 754.245 84.436 754.869 83.98C755.517 83.5 755.841 82.804 755.841 81.892ZM756.669 92.008C756.669 90.952 756.273 90.22 755.481 89.812C754.689 89.404 753.633 89.2 752.313 89.2H748.893V95.032H752.349C752.829 95.032 753.321 94.996 753.825 94.924C754.353 94.828 754.821 94.672 755.229 94.456C755.661 94.24 756.009 93.94 756.273 93.556C756.537 93.148 756.669 92.632 756.669 92.008ZM770.494 100V74.512H776.686V100H770.494ZM809.351 87.184C809.351 89.416 808.931 91.348 808.091 92.98C807.275 94.588 806.183 95.92 804.815 96.976C803.471 98.008 801.947 98.776 800.243 99.28C798.539 99.76 796.811 100 795.059 100H785.555V74.512H794.771C796.571 74.512 798.347 74.728 800.099 75.16C801.851 75.568 803.411 76.264 804.779 77.248C806.147 78.208 807.251 79.504 808.091 81.136C808.931 82.768 809.351 84.784 809.351 87.184ZM802.943 87.184C802.943 85.744 802.703 84.556 802.223 83.62C801.767 82.66 801.143 81.904 800.351 81.352C799.583 80.776 798.695 80.368 797.687 80.128C796.703 79.888 795.683 79.768 794.627 79.768H791.567V94.672H794.483C795.587 94.672 796.643 94.552 797.651 94.312C798.683 94.048 799.583 93.628 800.351 93.052C801.143 92.476 801.767 91.708 802.223 90.748C802.703 89.788 802.943 88.6 802.943 87.184ZM830.498 81.136C829.97 80.464 829.274 79.936 828.41 79.552C827.57 79.144 826.754 78.94 825.962 78.94C825.554 78.94 825.134 78.976 824.702 79.048C824.294 79.12 823.922 79.264 823.586 79.48C823.25 79.672 822.962 79.936 822.722 80.272C822.506 80.584 822.398 80.992 822.398 81.496C822.398 81.928 822.482 82.288 822.65 82.576C822.842 82.864 823.106 83.116 823.442 83.332C823.802 83.548 824.222 83.752 824.702 83.944C825.182 84.112 825.722 84.292 826.322 84.484C827.186 84.772 828.086 85.096 829.022 85.456C829.958 85.792 830.81 86.248 831.578 86.824C832.346 87.4 832.982 88.12 833.486 88.984C833.99 89.824 834.242 90.88 834.242 92.152C834.242 93.616 833.966 94.888 833.414 95.968C832.886 97.024 832.166 97.9 831.254 98.596C830.342 99.292 829.298 99.808 828.122 100.144C826.946 100.48 825.734 100.648 824.486 100.648C822.662 100.648 820.898 100.336 819.194 99.712C817.49 99.064 816.074 98.152 814.946 96.976L818.978 92.872C819.602 93.64 820.418 94.288 821.426 94.816C822.458 95.32 823.478 95.572 824.486 95.572C824.942 95.572 825.386 95.524 825.818 95.428C826.25 95.332 826.622 95.176 826.934 94.96C827.27 94.744 827.534 94.456 827.726 94.096C827.918 93.736 828.014 93.304 828.014 92.8C828.014 92.32 827.894 91.912 827.654 91.576C827.414 91.24 827.066 90.94 826.61 90.676C826.178 90.388 825.626 90.136 824.954 89.92C824.306 89.68 823.562 89.428 822.722 89.164C821.906 88.9 821.102 88.588 820.31 88.228C819.542 87.868 818.846 87.412 818.222 86.86C817.622 86.284 817.13 85.6 816.746 84.808C816.386 83.992 816.206 83.008 816.206 81.856C816.206 80.44 816.494 79.228 817.07 78.22C817.646 77.212 818.402 76.384 819.338 75.736C820.274 75.088 821.33 74.62 822.506 74.332C823.682 74.02 824.87 73.864 826.07 73.864C827.51 73.864 828.974 74.128 830.462 74.656C831.974 75.184 833.294 75.964 834.422 76.996L830.498 81.136Z" fill="#7252CD" fill-opacity="0.7"/>
<path d="M359.874 100V74.512H366.066V94.636H375.93V100H359.874ZM407.901 87.148C407.901 89.164 407.553 91.012 406.857 92.692C406.161 94.348 405.189 95.776 403.941 96.976C402.717 98.152 401.253 99.064 399.549 99.712C397.845 100.36 395.997 100.684 394.005 100.684C392.013 100.684 390.165 100.36 388.461 99.712C386.781 99.064 385.317 98.152 384.069 96.976C382.845 95.776 381.885 94.348 381.189 92.692C380.493 91.012 380.145 89.164 380.145 87.148C380.145 85.108 380.493 83.272 381.189 81.64C381.885 79.984 382.845 78.58 384.069 77.428C385.317 76.276 386.781 75.388 388.461 74.764C390.165 74.14 392.013 73.828 394.005 73.828C395.997 73.828 397.845 74.14 399.549 74.764C401.253 75.388 402.717 76.276 403.941 77.428C405.189 78.58 406.161 79.984 406.857 81.64C407.553 83.272 407.901 85.108 407.901 87.148ZM401.313 87.148C401.313 86.044 401.133 85.012 400.773 84.052C400.413 83.092 399.909 82.276 399.261 81.604C398.637 80.908 397.869 80.368 396.957 79.984C396.069 79.576 395.085 79.372 394.005 79.372C392.925 79.372 391.941 79.576 391.053 79.984C390.165 80.368 389.397 80.908 388.749 81.604C388.101 82.276 387.597 83.092 387.237 84.052C386.901 85.012 386.733 86.044 386.733 87.148C386.733 88.3 386.913 89.368 387.273 90.352C387.633 91.312 388.125 92.14 388.749 92.836C389.397 93.532 390.165 94.084 391.053 94.492C391.941 94.876 392.925 95.068 394.005 95.068C395.085 95.068 396.069 94.876 396.957 94.492C397.845 94.084 398.613 93.532 399.261 92.836C399.909 92.14 400.413 91.312 400.773 90.352C401.133 89.368 401.313 88.3 401.313 87.148ZM425.372 79.768V100H419.216V79.768H412.016V74.512H432.572V79.768H425.372Z" fill="#7252CD" fill-opacity="0.7"/>
<rect x="336" y="470" width="117" height="20" rx="10" fill="#9CA4B3"/>
<rect x="738" y="470" width="100" height="20" rx="10" fill="#9CA4B3"/>
<rect x="947" y="470" width="85" height="20" rx="10" fill="#9CA4B3"/>
<rect x="336" y="547" width="117" height="20" rx="10" fill="#9CA4B3"/>
<rect x="738" y="547" width="100" height="20" rx="10" fill="#9CA4B3"/>
<rect x="947" y="547" width="85" height="20" rx="10" fill="#9CA4B3"/>
<rect x="336" y="393" width="117" height="20" rx="10" fill="#9CA4B3"/>
<rect x="738" y="393" width="100" height="20" rx="10" fill="#9CA4B3"/>
<rect x="947" y="393" width="85" height="20" rx="10" fill="#9CA4B3"/>
<rect x="336" y="317" width="117" height="20" rx="10" fill="#9CA4B3"/>
<rect x="738" y="317" width="100" height="20" rx="10" fill="#9CA4B3"/>
<rect x="947" y="317" width="85" height="20" rx="10" fill="#9CA4B3"/>
<rect x="336" y="240" width="117" height="20" rx="10" fill="#9CA4B3"/>
<rect x="738" y="240" width="100" height="20" rx="10" fill="#9CA4B3"/>
<rect x="947" y="240" width="85" height="20" rx="10" fill="#9CA4B3"/>
<rect x="336" y="163" width="117" height="20" rx="10" fill="#9CA4B3"/>
<rect x="738" y="163" width="100" height="20" rx="10" fill="#9CA4B3"/>
<rect x="947" y="163" width="85" height="20" rx="10" fill="#9CA4B3"/>
<path d="M285 595C285 592.791 286.791 591 289 591H1115C1117.21 591 1119 592.791 1119 595V612H285V595Z" fill="#EDF1F9"/>
</svg>
